<?xml version="1.0" standalone="no"?>
<!DOCTYPE svg PUBLIC "-//W3C//DTD SVG 20010904//EN"
 "http://www.w3.org/TR/2001/REC-SVG-20010904/DTD/svg10.dtd">
<svg version="1.0" xmlns="http://www.w3.org/2000/svg"
 width="270.000000pt" height="270.000000pt" viewBox="0 0 270.000000 270.000000"
 preserveAspectRatio="xMidYMid meet">
<metadata>
Created by potrace 1.11, written by Peter Selinger 2001-2013
</metadata>
<g transform="translate(0.000000,270.000000) scale(0.100000,-0.100000)"
fill="#000000" stroke="none">
<path d="M368 2209 c-17 -13 -28 -30 -28 -45 0 -27 3 -28 31 -14 18 10 19 7
19 -85 0 -95 0 -95 25 -95 14 0 25 3 26 8 1 10 1 213 0 235 -1 23 -39 22 -73
-4z"/>
<path d="M1933 2038 c-22 -27 -90 -164 -89 -178 1 -11 17 -16 61 -20 55 -5 60
-7 59 -27 -1 -19 4 -23 26 -23 24 0 27 3 22 25 -3 20 0 25 17 25 27 0 29 36 3
44 -16 5 -18 17 -18 84 l1 77 -36 3 c-21 2 -40 -2 -46 -10z m31 -95 c-1 -27
-3 -51 -3 -54 -2 -10 -51 -4 -51 6 0 13 44 95 50 95 3 0 5 -21 4 -47z"/>
<path d="M960 1940 c-11 -11 -20 -33 -20 -49 0 -23 4 -28 23 -27 15 1 24 9 27
26 5 24 9 25 54 21 15 -1 16 -29 1 -51 -6 -8 -31 -32 -57 -53 -41 -32 -48 -44
-48 -73 l0 -34 86 0 c83 0 85 1 82 22 -3 20 -9 23 -55 23 -29 0 -53 2 -53 5 0
3 25 27 55 53 45 40 55 54 55 81 0 48 -31 76 -85 76 -32 0 -51 -6 -65 -20z"/>
<path d="M1557 1903 c-15 -17 -21 -36 -18 -59 2 -17 46 -9 49 8 4 20 24 28 52
21 16 -4 20 -12 18 -32 -2 -14 -10 -27 -18 -27 -8 -1 -21 -2 -28 -3 -23 -2 -8
-35 18 -41 18 -4 26 -14 28 -33 3 -26 -1 -29 -33 -29 -29 0 -34 2 -37 19 -3
19 -38 25 -49 9 -12 -16 12 -64 34 -70 40 -11 92 -6 115 10 25 17 31 81 10
102 -9 9 -9 15 0 24 21 21 15 85 -10 102 -31 22 -111 21 -131 -1z"/>
<path d="M2237 1823 c-3 -5 -5 -36 -5 -70 0 -68 11 -79 58 -58 44 20 55 14 58
-32 2 -24 0 -44 -5 -44 -42 -6 -58 -3 -57 14 1 12 -6 17 -27 17 -24 0 -29 -4
-29 -24 0 -33 35 -56 86 -56 59 0 83 23 88 84 3 41 0 53 -20 73 -24 24 -54 29
-83 14 -17 -10 -18 -7 -12 40 1 3 20 6 44 6 64 1 66 2 64 23 -1 18 -8 20 -79
20 -42 0 -79 -3 -81 -7z"/>
<path d="M393 1583 c-17 -9 -37 -26 -44 -39 -7 -13 -17 -24 -22 -24 -16 0 -64
-55 -85 -97 -47 -93 -45 -291 4 -397 25 -54 20 -79 -16 -91 -11 -3 -20 -10
-20 -15 0 -14 -151 -111 -182 -117 l-28 -5 1 -399 0 -399 1349 0 1349 0 0 455
0 455 -37 0 c-22 0 -59 -12 -91 -30 -58 -32 -81 -37 -81 -18 0 21 22 132 31
153 27 69 31 97 19 160 -7 36 -18 70 -26 76 -8 6 -14 25 -14 41 0 42 -54 106
-109 131 -65 29 -155 29 -204 0 -49 -29 -65 -29 -77 2 -5 14 -14 25 -20 25 -6
0 -9 4 -5 9 3 6 -14 23 -37 38 -78 52 -91 56 -143 45 -37 -8 -53 -7 -69 3 -61
39 -141 14 -240 -73 -34 -30 -86 -115 -86 -141 0 -6 -4 -11 -8 -11 -10 0 -11
-13 -14 -123 -2 -48 0 -87 5 -87 4 0 7 -7 7 -15 0 -8 6 -15 14 -15 8 0 25 -14
37 -31 22 -32 22 -32 4 -85 -13 -39 -16 -69 -12 -115 l5 -62 -81 6 c-103 6
-112 10 -139 58 -14 25 -31 42 -48 45 -58 12 -65 19 -68 67 -1 25 2 48 8 52 5
3 7 12 3 20 -3 8 0 15 7 15 6 0 9 4 5 10 -3 5 5 16 19 25 27 18 58 96 49 123
-3 9 -11 23 -16 30 -6 7 -12 32 -13 56 -2 24 -10 56 -18 71 -8 16 -13 32 -11
36 10 15 -82 96 -128 114 -61 23 -175 16 -235 -14 -75 -38 -96 -89 -106 -257
-6 -85 -4 -112 13 -165 11 -35 22 -75 25 -89 3 -14 16 -41 28 -60 24 -38 29
-79 13 -95 -74 -76 -164 -52 -170 45 -1 13 -7 26 -14 28 -6 2 -9 8 -5 13 3 5
-8 12 -25 15 -29 6 -31 9 -31 51 0 24 6 58 13 76 8 18 14 37 15 42 0 6 11 12
23 15 33 8 63 54 63 98 -2 84 -13 169 -28 203 -22 53 -136 165 -176 172 -51
11 -92 7 -127 -10z"/>
</g>
</svg>
